<?xml version="1.0" standalone="no"?>
<!DOCTYPE svg PUBLIC "-//W3C//DTD SVG 20010904//EN"
 "http://www.w3.org/TR/2001/REC-SVG-20010904/DTD/svg10.dtd">
<svg version="1.0" xmlns="http://www.w3.org/2000/svg"
 width="342.000000pt" height="342.000000pt" viewBox="0 0 342.000000 342.000000"
 preserveAspectRatio="xMidYMid meet">
<metadata>
Created by potrace 1.11, written by Peter Selinger 2001-2013
</metadata>
<g transform="translate(0.000000,342.000000) scale(0.100000,-0.100000)"
fill="#000000" stroke="none">
<path d="M1150 3258 c0 -7 -3 -23 -6 -35 -6 -22 -5 -22 127 -25 l134 -3 3 -48
3 -48 -138 3 -138 3 -3 38 c-3 36 -5 38 -35 35 -29 -3 -32 -6 -35 -40 l-3 -38
-90 0 -89 0 0 -45 0 -45 -49 0 -50 0 -3 43 c-3 41 -4 42 -38 42 -34 0 -35 -1
-38 -41 l-3 -41 -80 -6 c-44 -3 -82 -7 -85 -9 -3 -4 -10 -43 -13 -80 -1 -4
-20 -8 -43 -10 -42 -3 -43 -4 -46 -40 -3 -37 -4 -38 -43 -38 l-39 0 0 -45 0
-45 -49 0 -48 0 -7 53 c-3 28 -6 67 -6 85 0 30 -2 32 -35 32 l-35 0 0 -85 c0
-83 -1 -86 -26 -95 -14 -6 -30 -8 -35 -5 -13 9 -19 -30 -22 -145 l-2 -105 -44
-3 -44 -3 7 -322 c4 -177 10 -330 12 -339 4 -12 18 -18 47 -20 l42 -3 3 -77 3
-78 39 -6 c39 -6 40 -8 40 -45 0 -37 0 -38 43 -41 l42 -3 8 -115 c4 -63 10
-121 12 -127 3 -9 29 -13 85 -13 l80 0 0 -250 0 -250 45 0 c41 0 45 -2 45 -24
0 -45 10 -56 51 -56 l38 0 3 -82 3 -83 38 -3 c20 -2 38 -7 38 -13 1 -5 3 -13
4 -19 1 -5 3 -16 4 -24 1 -10 15 -16 44 -18 35 -2 41 -6 39 -22 -2 -10 -1 -30
3 -44 l6 -25 162 4 162 4 5 -40 c5 -39 6 -40 48 -43 41 -3 42 -4 42 -38 l0
-34 64 0 c83 0 94 -5 102 -45 3 -19 11 -35 17 -37 7 -2 119 -2 250 0 l237 4 0
39 0 39 -230 0 c-223 0 -230 1 -230 20 0 15 -7 20 -25 20 -15 0 -25 6 -25 14
0 10 -13 16 -37 18 -36 3 -38 5 -41 41 -3 35 -13 44 -46 38 -13 -3 -46 10 -45
17 1 4 1 22 0 40 l-1 32 -169 0 -170 0 -3 33 c-3 29 -6 32 -40 35 -36 3 -37 5
-40 45 -3 39 -5 42 -33 44 -16 0 -36 2 -42 2 -9 1 -13 22 -13 71 0 75 -10 90
-64 90 -24 0 -26 4 -26 39 0 40 0 40 -42 43 l-43 3 0 42 -1 43 43 0 43 0 0 79
0 80 -42 3 c-43 3 -43 3 -43 43 l0 40 83 3 83 3 -3 37 c-3 35 -5 37 -39 40
l-36 3 -6 122 c-3 67 -3 125 2 130 4 4 64 6 132 5 l124 -3 5 -79 5 -79 335 2
c184 1 338 5 342 9 4 4 8 41 10 82 l3 75 40 0 40 0 3 -82 3 -83 197 1 c108 1
260 4 337 8 l140 6 3 78 3 78 132 -3 132 -3 3 -37 c3 -35 5 -37 40 -40 36 -3
37 -4 37 -43 0 -40 0 -40 -41 -43 l-41 -3 -8 -327 c-4 -180 -9 -330 -12 -334
-2 -5 -20 -8 -39 -8 -32 0 -34 -2 -34 -33 0 -31 -3 -34 -42 -43 -40 -8 -43
-11 -46 -46 -3 -38 -4 -38 -47 -38 l-44 0 -3 -42 c-2 -35 -7 -43 -23 -44 -53
-2 -55 -3 -55 -38 l0 -34 -125 -7 c-96 -5 -125 -10 -126 -21 -1 -8 -3 -18 -4
-24 -1 -5 -3 -17 -4 -25 -1 -11 -13 -15 -41 -15 l-40 0 0 -40 c0 -45 3 -46
108 -34 51 7 52 7 52 40 l0 34 124 0 125 0 3 43 c3 42 3 42 45 45 40 3 42 4
45 40 3 35 5 37 43 42 38 5 40 7 43 43 3 36 4 37 42 37 39 0 39 0 42 43 3 42
3 42 44 45 l41 3 7 167 c3 92 4 214 1 272 -3 58 -1 111 3 118 5 7 39 15 82 18
41 3 77 7 82 10 4 3 8 49 9 102 1 121 7 144 39 149 43 6 50 12 50 41 0 35 16
52 51 52 23 0 26 3 22 21 -4 12 0 25 7 29 8 5 16 28 19 52 6 41 7 43 44 46 30
3 37 7 37 25 0 51 11 66 49 69 l36 3 8 63 c24 205 19 186 52 192 28 5 30 9 38
65 4 33 6 87 5 120 l-3 60 -83 3 -83 3 3 87 3 87 82 3 c79 3 83 4 89 27 12 48
1 55 -85 55 -82 0 -93 6 -87 46 4 23 -11 34 -46 34 -24 0 -28 -4 -28 -30 0
-16 -5 -40 -11 -54 -10 -21 -17 -24 -53 -21 -22 2 -47 4 -55 4 -12 1 -12 3 1
14 9 6 18 28 20 47 l3 35 -133 3 -133 3 3 47 3 47 43 3 c42 3 42 3 42 43 0 39
0 39 -39 39 -41 0 -51 11 -51 56 0 25 -1 25 -77 22 l-78 -3 0 -30 c0 -27 3
-30 38 -33 20 -2 38 -6 38 -10 11 -58 -15 -184 -36 -176 -7 3 -16 19 -19 36
-6 30 -6 30 -59 24 -30 -3 -65 -10 -79 -15 -14 -5 -28 -9 -30 -8 -2 1 6 -6 17
-15 20 -17 19 -18 -19 -18 -36 0 -38 1 -32 26 4 14 2 31 -3 38 -6 7 -11 50
-13 96 l-3 85 -37 3 c-31 3 -38 7 -39 25 -1 12 -2 27 -4 32 -1 6 -3 16 -3 23
-1 7 -16 12 -37 12 -35 0 -35 0 -35 -45 l0 -45 -140 0 -140 0 0 45 0 45 -46 0
-45 0 3 48 3 47 49 0 50 0 0 -40 c1 -39 2 -40 39 -43 l37 -3 0 80 0 81 -129 0
-130 0 -3 43 c-3 41 -4 42 -40 45 l-38 3 0 -74 0 -75 45 -6 45 -7 0 -50 0 -49
-95 0 -95 0 0 130 0 130 -215 0 c-165 0 -215 -3 -215 -12z m1370 -578 c0 -5
-10 -10 -22 -9 -22 0 -22 1 -3 9 11 5 21 9 23 9 1 1 2 -3 2 -9z m-1110 -65 l0
-45 -40 0 -40 0 0 -40 0 -41 78 3 77 3 5 40 c5 40 5 40 52 43 l47 3 3 -43 3
-43 160 -2 c88 -2 166 1 174 6 8 5 14 22 15 38 1 23 5 28 26 28 16 0 25 -6 25
-16 0 -26 39 -57 75 -61 33 -3 35 -6 38 -40 3 -37 4 -38 43 -38 39 0 39 0 39
40 l0 40 90 0 90 0 0 -130 0 -130 45 0 44 0 3 -82 3 -83 80 -3 80 -3 -3 -162
c-2 -89 -5 -168 -7 -174 -3 -7 -20 -13 -39 -13 -33 0 -35 -2 -38 -37 l-3 -38
-90 0 -90 0 -5 35 -5 35 -315 3 c-173 1 -325 0 -337 -3 -18 -4 -23 -12 -23
-40 0 -35 0 -35 -45 -35 -45 0 -45 0 -45 35 l0 35 -344 0 -345 0 -3 -37 -3
-38 -126 -3 c-151 -3 -139 -21 -139 190 l0 147 38 3 37 3 3 88 3 87 29 0 c48
0 60 9 60 46 0 31 8 39 32 35 20 -3 57 20 52 32 -2 7 0 26 5 40 9 22 17 27 45
27 33 0 35 2 38 38 l3 37 80 5 79 5 12 40 c10 37 14 40 50 45 38 5 39 6 42 48
l3 42 45 0 44 0 0 40 0 40 45 0 45 0 0 -45z m1350 -60 c-12 -15 -30 -12 -30 6
0 5 10 9 21 9 18 0 19 -2 9 -15z m129 11 c-8 -8 -88 -10 -95 -3 -4 4 17 7 46
7 29 0 51 -2 49 -4z m38 -2 c-3 -3 -12 -4 -19 -1 -8 3 -5 6 6 6 11 1 17 -2 13
-5z m61 -106 c-3 -59 -12 -65 -74 -53 -30 5 -34 9 -34 38 0 43 9 54 45 60 69
10 66 12 63 -45z m-2331 -74 c-3 -3 -12 -4 -19 -1 -8 3 -5 6 6 6 11 1 17 -2
13 -5z m113 -54 c0 -5 -5 -10 -11 -10 -5 0 -7 5 -4 10 3 6 8 10 11 10 2 0 4
-4 4 -10z m2148 -34 c-7 -8 -15 -12 -17 -11 -5 6 10 25 20 25 5 0 4 -6 -3 -14z
m42 -41 c0 -2 -13 -5 -30 -7 -19 -3 -30 0 -30 7 0 7 11 10 30 7 17 -2 30 -5
30 -7z m-2265 -5 c3 -5 1 -10 -4 -10 -6 0 -11 5 -11 10 0 6 2 10 4 10 3 0 8
-4 11 -10z m-225 -50 c0 -5 -4 -10 -10 -10 -5 0 -10 5 -10 10 0 6 5 10 10 10
6 0 10 -4 10 -10z m147 -52 c-3 -8 -6 -5 -6 6 -1 11 2 17 5 13 3 -3 4 -12 1
-19z m-227 -227 c0 -14 10 -17 61 -16 52 0 63 3 70 20 7 19 8 19 8 -2 1 -29
-3 -31 -84 -34 l-70 -3 -3 33 c-2 22 0 31 7 26 6 -3 11 -14 11 -24z m2404
-223 c0 -10 -1 -47 -2 -83 l-2 -65 -45 0 -45 0 0 78 c0 43 3 82 7 86 4 4 25 6
48 4 31 -2 40 -7 39 -20z m-2254 -38 l0 -40 -44 0 c-41 0 -44 2 -50 31 -8 43
-2 49 50 49 l44 0 0 -40z m1374 -26 c11 -4 16 -19 16 -45 0 -39 0 -39 39 -39
40 0 40 0 43 43 l3 42 110 3 c61 2 121 0 134 -3 23 -6 23 -8 18 -86 -3 -44 -7
-82 -8 -83 -2 -2 -119 -5 -259 -7 l-255 -4 -3 84 c-2 61 1 87 10 92 15 10 129
12 152 3z m-674 -49 c5 -38 7 -40 40 -40 33 0 35 2 40 40 l5 40 85 0 85 0 0
-85 0 -85 -262 -3 -263 -2 0 83 c0 46 3 87 7 91 4 3 63 5 132 4 l126 -3 5 -40z"/>
<path d="M1075 1948 c-2 -7 -5 -24 -7 -38 -3 -22 -9 -25 -45 -28 -43 -3 -43
-3 -43 -43 l0 -39 80 0 80 0 0 45 0 44 128 3 127 3 0 30 0 30 -158 3 c-121 2
-158 0 -162 -10z"/>
<path d="M1850 1925 l0 -35 125 0 125 0 0 -40 0 -40 40 0 40 0 0 75 0 75 -165
0 -165 0 0 -35z"/>
<path d="M795 3170 c-4 -6 -4 -22 -1 -36 6 -21 12 -25 39 -22 28 3 32 7 32 33
0 26 -4 30 -32 33 -17 2 -34 -2 -38 -8z"/>
<path d="M2306 3149 c-3 -17 -6 -51 -6 -74 0 -46 16 -61 51 -50 16 6 19 17 19
81 l0 74 -29 0 c-24 0 -29 -5 -35 -31z"/>
<path d="M437 3093 c-4 -3 -7 -21 -7 -40 0 -32 1 -33 40 -33 39 0 40 1 40 34
0 22 -6 36 -16 40 -21 8 -49 8 -57 -1z"/>
<path d="M2390 2970 c0 -41 1 -41 33 -38 29 3 32 6 32 38 0 32 -3 35 -32 38
-32 3 -33 3 -33 -38z"/>
<path d="M260 2965 c0 -33 2 -35 35 -35 33 0 35 2 35 35 0 33 -2 35 -35 35
-33 0 -35 -2 -35 -35z"/>
<path d="M3345 2478 c-2 -7 -6 -42 -7 -78 l-3 -65 35 0 35 0 3 78 3 77 -31 0
c-17 0 -33 -6 -35 -12z"/>
<path d="M1778 1283 c-13 -3 -18 -15 -18 -44 l0 -39 -134 0 -134 0 -7 40 c-6
38 -9 40 -41 40 l-35 0 3 -72 3 -73 193 -2 c107 -1 200 1 208 4 10 4 14 24 14
79 0 78 -2 80 -52 67z"/>
<path d="M1240 916 c0 -34 1 -35 43 -38 42 -3 42 -3 45 -46 l3 -42 162 2 162
3 0 35 0 35 -125 5 -125 5 -3 38 -3 37 -80 0 -79 0 0 -34z"/>
<path d="M810 826 c0 -34 13 -46 50 -46 25 0 31 12 24 49 -6 27 -11 31 -40 31
-32 0 -34 -2 -34 -34z"/>
<path d="M2349 788 c0 -2 -2 -18 -3 -35 -2 -33 -2 -33 41 -33 44 0 44 0 41 33
-3 29 -6 32 -40 35 -21 2 -38 2 -39 0z"/>
<path d="M894 766 c-13 -34 0 -51 42 -54 l40 -3 -4 36 c-4 32 -7 35 -38 35
-21 0 -37 -6 -40 -14z"/>
<path d="M2260 675 c0 -34 1 -35 38 -35 37 0 39 1 40 35 1 34 1 35 -38 35 -39
0 -40 -1 -40 -35z"/>
<path d="M1498 453 c-3 -4 -3 -14 -2 -20 1 -7 2 -22 3 -33 1 -19 8 -20 116
-20 111 0 116 1 124 23 18 49 13 52 -117 55 -66 1 -122 -1 -124 -5z"/>
</g>
</svg>
